<!DOCTYPE svg PUBLIC "-//W3C//DTD SVG 1.1//EN" "http://www.w3.org/Graphics/SVG/1.1/DTD/svg11.dtd">
<!-- Uploaded to: SVG Repo, www.svgrepo.com, Transformed by: SVG Repo Mixer Tools -->
<svg fill="#00ff00" height="800px" width="800px" version="1.1" id="Layer_1" xmlns="http://www.w3.org/2000/svg" xmlns:xlink="http://www.w3.org/1999/xlink" viewBox="-40.96 -40.96 593.92 593.92" xml:space="preserve" transform="matrix(-1, 0, 0, 1, 0, 0)rotate(90)" stroke="#00ff00" stroke-width="0.0051200099999999995">
<g id="SVGRepo_bgCarrier" stroke-width="0"/>
<g id="SVGRepo_tracerCarrier" stroke-linecap="round" stroke-linejoin="round" stroke="#00cc00" stroke-width="22.528044"> <g> <g> <path d="M506.233,132.669c-7.688-7.689-20.157-7.69-27.849,0c-5.272,5.272-11.548,9.414-18.377,12.662L366.67,51.994 c3.248-6.829,7.389-13.105,12.661-18.377c7.691-7.69,7.691-20.158,0-27.849c-7.689-7.69-20.158-7.69-27.849,0 c-34.669,34.669-38.819,91.206-33.032,139.817c-122.014-14.431-188.442,41.173-172.866,172.866 c-48.578-5.783-105.136-1.648-139.815,33.032c-7.69,7.689-7.69,20.158,0,27.849c7.688,7.69,20.157,7.69,27.849,0 c5.272-5.272,11.548-9.414,18.378-12.662l93.334,93.334c-3.286,6.913-7.44,13.164-12.657,18.382c-7.69,7.689-7.69,20.158,0,27.849 c7.689,7.691,20.158,7.691,27.849,0c34.669-34.668,38.819-91.203,33.032-139.814c122.012,14.425,188.442-41.173,172.864-172.868 c48.519,5.776,105.141,1.644,139.815-33.032C513.923,152.827,513.923,140.36,506.233,132.669z M155.862,414.835l-58.686-58.686 c18.377-1.229,37.906,0.182,55.707,3.102C155.332,373.845,157.271,394.27,155.862,414.835z M186.379,325.62 c-2.926-17.89-4.302-37.421-3.086-55.593l58.677,58.677C223.654,329.93,204.17,328.53,186.379,325.62z M287.149,318.188 l-93.338-93.338c6.724-14.14,16.167-23.968,31.038-31.04l93.338,93.338C311.463,301.288,302.02,311.115,287.149,318.188z M328.708,241.969l-58.677-58.677c18.315-1.225,37.795,0.173,55.59,3.084C328.548,204.262,329.925,223.797,328.708,241.969z M359.235,152.764c-2.926-17.891-4.302-37.419-3.086-55.593l58.677,58.677C396.515,157.072,377.03,155.675,359.235,152.764z"/> </g> </g> </g>
<g id="SVGRepo_iconCarrier"> <g> <g> <path d="M506.233,132.669c-7.688-7.689-20.157-7.69-27.849,0c-5.272,5.272-11.548,9.414-18.377,12.662L366.67,51.994 c3.248-6.829,7.389-13.105,12.661-18.377c7.691-7.69,7.691-20.158,0-27.849c-7.689-7.69-20.158-7.69-27.849,0 c-34.669,34.669-38.819,91.206-33.032,139.817c-122.014-14.431-188.442,41.173-172.866,172.866 c-48.578-5.783-105.136-1.648-139.815,33.032c-7.69,7.689-7.69,20.158,0,27.849c7.688,7.69,20.157,7.69,27.849,0 c5.272-5.272,11.548-9.414,18.378-12.662l93.334,93.334c-3.286,6.913-7.44,13.164-12.657,18.382c-7.69,7.689-7.69,20.158,0,27.849 c7.689,7.691,20.158,7.691,27.849,0c34.669-34.668,38.819-91.203,33.032-139.814c122.012,14.425,188.442-41.173,172.864-172.868 c48.519,5.776,105.141,1.644,139.815-33.032C513.923,152.827,513.923,140.36,506.233,132.669z M155.862,414.835l-58.686-58.686 c18.377-1.229,37.906,0.182,55.707,3.102C155.332,373.845,157.271,394.27,155.862,414.835z M186.379,325.62 c-2.926-17.89-4.302-37.421-3.086-55.593l58.677,58.677C223.654,329.93,204.17,328.53,186.379,325.62z M287.149,318.188 l-93.338-93.338c6.724-14.14,16.167-23.968,31.038-31.04l93.338,93.338C311.463,301.288,302.02,311.115,287.149,318.188z M328.708,241.969l-58.677-58.677c18.315-1.225,37.795,0.173,55.59,3.084C328.548,204.262,329.925,223.797,328.708,241.969z M359.235,152.764c-2.926-17.891-4.302-37.419-3.086-55.593l58.677,58.677C396.515,157.072,377.03,155.675,359.235,152.764z"/> </g> </g> </g>
</svg>